<?xml version="1.0" ?><!DOCTYPE svg  PUBLIC '-//W3C//DTD SVG 1.1//EN'  'http://www.w3.org/Graphics/SVG/1.1/DTD/svg11.dtd'><svg enable-background="new 0 0 512 512" height="512px" version="1.1" viewBox="0 0 512 512" width="512px" xml:space="preserve" xmlns="http://www.w3.org/2000/svg" xmlns:xlink="http://www.w3.org/1999/xlink"><g><g id="grid"/><g id="Layer_2"><g><g><linearGradient gradientUnits="userSpaceOnUse" id="SVGID_1_" x1="168.8335" x2="210.1665" y1="281.1689" y2="281.1689"><stop offset="0" style="stop-color:#FCC002"/><stop offset="0.4729" style="stop-color:#FDE804"/><stop offset="0.8865" style="stop-color:#FAC908"/><stop offset="1" style="stop-color:#BF8B02"/></linearGradient><rect fill="url(#SVGID_1_)" height="397" width="41.333" x="168.833" y="82.669"/><linearGradient gradientUnits="userSpaceOnUse" id="SVGID_2_" x1="171.3335" x2="206.0005" y1="57.707" y2="57.707"><stop offset="0" style="stop-color:#FCC002"/><stop offset="0.4729" style="stop-color:#FDE804"/><stop offset="0.5875" style="stop-color:#FAC800"/><stop offset="1" style="stop-color:#BF8B02"/></linearGradient><path d="M183.845,33.774c0,0,2.172-1.407,5.214-1.359c2.629,0.041,5.212,1.401,5.212,1.401L206,83       h-34.667L183.845,33.774z" fill="url(#SVGID_2_)"/><linearGradient gradientUnits="userSpaceOnUse" id="SVGID_3_" x1="168.8335" x2="210.1665" y1="281.1689" y2="281.1689"><stop offset="0" style="stop-color:#D1A10D"/><stop offset="0.2885" style="stop-color:#E0CA29"/><stop offset="0.5321" style="stop-color:#FCF769"/><stop offset="0.6836" style="stop-color:#DBCF21"/><stop offset="0.8793" style="stop-color:#CBBA23"/><stop offset="1" style="stop-color:#A68912"/></linearGradient><path d="M210.167,467.669h-41.333v-372c0,0,16.031-1,21.375-1c4.989,0,19.958,1,19.958,1V467.669z" fill="url(#SVGID_3_)"/><linearGradient gradientUnits="userSpaceOnUse" id="SVGID_4_" x1="168.8335" x2="209.8335" y1="135.1646" y2="135.1646"><stop offset="0" style="stop-color:#171705"/><stop offset="0.1445" style="stop-color:#252918"/><stop offset="0.4746" style="stop-color:#515E44"/><stop offset="0.8428" style="stop-color:#333F26"/><stop offset="0.9949" style="stop-color:#1F1108"/></linearGradient><path d="M209.833,152.669c0,0-8.034-1.349-20.5-1.375c-12.789-0.026-20.5,1.375-20.5,1.375v-33.125       c0,0,11.716-1.757,19.833-1.875c9.292-0.135,21.167,1.375,21.167,1.375V152.669z" fill="url(#SVGID_4_)"/><linearGradient gradientUnits="userSpaceOnUse" id="SVGID_5_" x1="168.8335" x2="209.8481" y1="135.208" y2="135.208"><stop offset="0" style="stop-color:#D1A10D"/><stop offset="0.2885" style="stop-color:#E0CA29"/><stop offset="0.5321" style="stop-color:#FCF769"/><stop offset="0.6836" style="stop-color:#DBCF21"/><stop offset="0.8793" style="stop-color:#CBBA23"/><stop offset="1" style="stop-color:#A68912"/></linearGradient><path d="M188.667,142.18c-10.795,0.862-19.494-3.654-19.833-3.886v-7.875       c0.066,0.045,8.769,5.31,17.553,4.75c9.822-0.625,19.989-7.042,23.447-7.042l0.015,7.033       C208.08,135.965,199.25,141.335,188.667,142.18z" fill="url(#SVGID_5_)"/></g><g><linearGradient gradientUnits="userSpaceOnUse" id="SVGID_6_" x1="213" x2="254" y1="281.5" y2="281.5"><stop offset="0" style="stop-color:#1C710E"/><stop offset="0.4729" style="stop-color:#469849"/><stop offset="0.5875" style="stop-color:#15720B"/><stop offset="1" style="stop-color:#014401"/></linearGradient><rect fill="url(#SVGID_6_)" height="397" width="41" x="213" y="83"/><linearGradient gradientUnits="userSpaceOnUse" id="SVGID_7_" x1="215.3335" x2="250.0005" y1="57.707" y2="57.707"><stop offset="0" style="stop-color:#1C710E"/><stop offset="0.4729" style="stop-color:#469849"/><stop offset="0.5875" style="stop-color:#15720B"/><stop offset="1" style="stop-color:#014401"/></linearGradient><path d="M227.844,33.774c0,0,2.173-1.407,5.215-1.359c2.628,0.041,5.212,1.401,5.212,1.401L250,83       h-34.667L227.844,33.774z" fill="url(#SVGID_7_)"/><linearGradient gradientUnits="userSpaceOnUse" id="SVGID_8_" x1="212.8335" x2="254.1675" y1="281.1689" y2="281.1689"><stop offset="0" style="stop-color:#56AA23"/><stop offset="0.2885" style="stop-color:#68C746"/><stop offset="0.5321" style="stop-color:#90E37A"/><stop offset="0.6836" style="stop-color:#6EB749"/><stop offset="0.8793" style="stop-color:#5D8436"/><stop offset="1" style="stop-color:#435624"/></linearGradient><path d="M254.167,467.669h-41.334v-372c0,0,16.031-1,21.375-1c4.99,0,19.959,1,19.959,1V467.669z" fill="url(#SVGID_8_)"/><linearGradient gradientUnits="userSpaceOnUse" id="SVGID_9_" x1="212.8335" x2="253.8335" y1="135.1646" y2="135.1646"><stop offset="0" style="stop-color:#171705"/><stop offset="0.1445" style="stop-color:#252918"/><stop offset="0.4746" style="stop-color:#515E44"/><stop offset="0.8428" style="stop-color:#333F26"/><stop offset="0.9949" style="stop-color:#1F1108"/></linearGradient><path d="M253.833,152.669c0,0-8.034-1.349-20.5-1.375c-12.789-0.026-20.5,1.375-20.5,1.375v-33.125       c0,0,11.716-1.757,19.833-1.875c9.292-0.135,21.167,1.375,21.167,1.375V152.669z" fill="url(#SVGID_9_)"/><linearGradient gradientUnits="userSpaceOnUse" id="SVGID_10_" x1="212.8335" x2="253.8491" y1="135.208" y2="135.208"><stop offset="0" style="stop-color:#56AA23"/><stop offset="0.2885" style="stop-color:#68C746"/><stop offset="0.5321" style="stop-color:#90E37A"/><stop offset="0.6836" style="stop-color:#6EB749"/><stop offset="0.8793" style="stop-color:#5D8436"/><stop offset="1" style="stop-color:#435624"/></linearGradient><path d="M232.667,142.18c-10.795,0.862-19.493-3.654-19.833-3.886v-7.875       c0.066,0.045,8.769,5.31,17.554,4.75c9.821-0.625,19.987-7.042,23.446-7.042l0.016,7.033       C252.08,135.965,243.25,141.335,232.667,142.18z" fill="url(#SVGID_10_)"/></g><g><linearGradient gradientUnits="userSpaceOnUse" id="SVGID_11_" x1="125" x2="166" y1="281.5" y2="281.5"><stop offset="0" style="stop-color:#F74206"/><stop offset="0.4729" style="stop-color:#F96918"/><stop offset="0.5875" style="stop-color:#F74505"/><stop offset="1" style="stop-color:#EC3107"/></linearGradient><rect fill="url(#SVGID_11_)" height="397" width="41" x="125" y="83"/><linearGradient gradientUnits="userSpaceOnUse" id="SVGID_12_" x1="127.3335" x2="162.0005" y1="57.707" y2="57.707"><stop offset="0" style="stop-color:#F74206"/><stop offset="0.4729" style="stop-color:#F96918"/><stop offset="0.5875" style="stop-color:#F74505"/><stop offset="1" style="stop-color:#B51024"/></linearGradient><path d="M139.845,33.774c0,0,2.172-1.407,5.213-1.359c2.629,0.041,5.213,1.401,5.213,1.401L162,83       h-34.667L139.845,33.774z" fill="url(#SVGID_12_)"/><linearGradient gradientUnits="userSpaceOnUse" id="SVGID_13_" x1="124.8335" x2="166.1675" y1="281.1689" y2="281.1689"><stop offset="0" style="stop-color:#E95315"/><stop offset="0.2885" style="stop-color:#F16822"/><stop offset="0.5321" style="stop-color:#FE994E"/><stop offset="0.6836" style="stop-color:#F97F30"/><stop offset="0.8793" style="stop-color:#EC5C0F"/><stop offset="1" style="stop-color:#C9410B"/></linearGradient><path d="M166.167,467.669h-41.334v-372c0,0,16.031-1,21.375-1c4.99,0,19.959,1,19.959,1V467.669z" fill="url(#SVGID_13_)"/><linearGradient gradientUnits="userSpaceOnUse" id="SVGID_14_" x1="124.8335" x2="165.8335" y1="135.1646" y2="135.1646"><stop offset="0" style="stop-color:#171705"/><stop offset="0.1445" style="stop-color:#252918"/><stop offset="0.4746" style="stop-color:#515E44"/><stop offset="0.8428" style="stop-color:#333F26"/><stop offset="0.9949" style="stop-color:#1F1108"/></linearGradient><path d="M165.833,152.669c0,0-8.034-1.349-20.5-1.375c-12.789-0.026-20.5,1.375-20.5,1.375v-33.125       c0,0,11.717-1.757,19.834-1.875c9.291-0.135,21.166,1.375,21.166,1.375V152.669z" fill="url(#SVGID_14_)"/><linearGradient gradientUnits="userSpaceOnUse" id="SVGID_15_" x1="124.8335" x2="165.8491" y1="135.208" y2="135.208"><stop offset="0" style="stop-color:#E95315"/><stop offset="0.2885" style="stop-color:#F16822"/><stop offset="0.5321" style="stop-color:#FE994E"/><stop offset="0.6836" style="stop-color:#F97F30"/><stop offset="0.8793" style="stop-color:#EC5C0F"/><stop offset="1" style="stop-color:#C9410B"/></linearGradient><path d="M144.667,142.18c-10.795,0.862-19.494-3.654-19.834-3.886v-7.875       c0.066,0.045,8.77,5.31,17.553,4.75c9.822-0.625,19.988-7.042,23.447-7.042l0.016,7.033       C164.08,135.965,155.25,141.335,144.667,142.18z" fill="url(#SVGID_15_)"/></g><g><linearGradient gradientUnits="userSpaceOnUse" id="SVGID_16_" x1="81" x2="122" y1="281.5" y2="281.5"><stop offset="0" style="stop-color:#A80D24"/><stop offset="0.4729" style="stop-color:#D13535"/><stop offset="0.5875" style="stop-color:#BD0817"/><stop offset="1" style="stop-color:#9D0B20"/></linearGradient><rect fill="url(#SVGID_16_)" height="397" width="41" x="81" y="83"/><linearGradient gradientUnits="userSpaceOnUse" id="SVGID_17_" x1="83.3335" x2="118.0005" y1="57.707" y2="57.707"><stop offset="0" style="stop-color:#A80D24"/><stop offset="0.4729" style="stop-color:#D13535"/><stop offset="0.5875" style="stop-color:#BD0817"/><stop offset="1" style="stop-color:#780817"/></linearGradient><path d="M95.845,33.774c0,0,2.172-1.407,5.213-1.359c2.629,0.041,5.213,1.401,5.213,1.401L118,83       H83.333L95.845,33.774z" fill="url(#SVGID_17_)"/><linearGradient gradientUnits="userSpaceOnUse" id="SVGID_18_" x1="80.8335" x2="122.1675" y1="281.1689" y2="281.1689"><stop offset="0" style="stop-color:#E9596A"/><stop offset="0.2885" style="stop-color:#E75669"/><stop offset="0.5321" style="stop-color:#F283A0"/><stop offset="0.6836" style="stop-color:#E64B60"/><stop offset="0.8793" style="stop-color:#D8313F"/><stop offset="1" style="stop-color:#E03A37"/></linearGradient><path d="M122.167,467.669H80.833v-372c0,0,16.031-1,21.375-1c4.99,0,19.959,1,19.959,1V467.669z" fill="url(#SVGID_18_)"/><linearGradient gradientUnits="userSpaceOnUse" id="SVGID_19_" x1="80.8335" x2="121.8335" y1="135.1646" y2="135.1646"><stop offset="0" style="stop-color:#171705"/><stop offset="0.1445" style="stop-color:#252918"/><stop offset="0.4746" style="stop-color:#515E44"/><stop offset="0.8428" style="stop-color:#333F26"/><stop offset="0.9949" style="stop-color:#1F1108"/></linearGradient><path d="M121.833,152.669c0,0-8.034-1.349-20.5-1.375c-12.789-0.026-20.5,1.375-20.5,1.375v-33.125       c0,0,11.717-1.757,19.834-1.875c9.291-0.135,21.166,1.375,21.166,1.375V152.669z" fill="url(#SVGID_19_)"/><linearGradient gradientUnits="userSpaceOnUse" id="SVGID_20_" x1="80.8335" x2="121.8491" y1="135.208" y2="135.208"><stop offset="0" style="stop-color:#E9596A"/><stop offset="0.2885" style="stop-color:#E75669"/><stop offset="0.5321" style="stop-color:#F283A0"/><stop offset="0.6836" style="stop-color:#E64B60"/><stop offset="0.8793" style="stop-color:#D8313F"/><stop offset="1" style="stop-color:#E03A37"/></linearGradient><path d="M100.667,142.18c-10.795,0.862-19.494-3.654-19.834-3.886v-7.875       c0.066,0.045,8.77,5.31,17.553,4.75c9.822-0.625,19.988-7.042,23.447-7.042l0.016,7.033       C120.08,135.965,111.25,141.335,100.667,142.18z" fill="url(#SVGID_20_)"/></g><g><linearGradient gradientUnits="userSpaceOnUse" id="SVGID_21_" x1="257" x2="298" y1="281.5" y2="281.5"><stop offset="0" style="stop-color:#010C3F"/><stop offset="0.3489" style="stop-color:#111E59"/><stop offset="0.4729" style="stop-color:#4051A3"/><stop offset="0.5875" style="stop-color:#0F1D5E"/><stop offset="1" style="stop-color:#0E1A48"/></linearGradient><rect fill="url(#SVGID_21_)" height="397" width="41" x="257" y="83"/><linearGradient gradientUnits="userSpaceOnUse" id="SVGID_22_" x1="259.334" x2="294" y1="57.707" y2="57.707"><stop offset="0" style="stop-color:#010C3F"/><stop offset="0.3489" style="stop-color:#111E59"/><stop offset="0.4729" style="stop-color:#4051A3"/><stop offset="0.5875" style="stop-color:#0F1D5E"/><stop offset="1" style="stop-color:#0E1A48"/></linearGradient><path d="M271.846,33.774c0,0,2.172-1.407,5.213-1.359c2.629,0.041,5.213,1.401,5.213,1.401L294,83       h-34.666L271.846,33.774z" fill="url(#SVGID_22_)"/><linearGradient gradientUnits="userSpaceOnUse" id="SVGID_23_" x1="256.8335" x2="298.168" y1="281.1689" y2="281.1689"><stop offset="0" style="stop-color:#345070"/><stop offset="0.2885" style="stop-color:#5379B4"/><stop offset="0.5321" style="stop-color:#6F9DCE"/><stop offset="0.6836" style="stop-color:#5685BE"/><stop offset="0.8793" style="stop-color:#405C99"/><stop offset="1" style="stop-color:#343D74"/></linearGradient><path d="M298.168,467.669h-41.334v-372c0,0,16.032-1,21.375-1c4.99,0,19.959,1,19.959,1V467.669z" fill="url(#SVGID_23_)"/><linearGradient gradientUnits="userSpaceOnUse" id="SVGID_24_" x1="256.8335" x2="297.834" y1="135.1646" y2="135.1646"><stop offset="0" style="stop-color:#171705"/><stop offset="0.1445" style="stop-color:#252918"/><stop offset="0.4746" style="stop-color:#515E44"/><stop offset="0.8428" style="stop-color:#333F26"/><stop offset="0.9949" style="stop-color:#1F1108"/></linearGradient><path d="M297.834,152.669c0,0-8.035-1.349-20.5-1.375c-12.789-0.026-20.5,1.375-20.5,1.375v-33.125       c0,0,11.717-1.757,19.834-1.875c9.291-0.135,21.166,1.375,21.166,1.375V152.669z" fill="url(#SVGID_24_)"/><linearGradient gradientUnits="userSpaceOnUse" id="SVGID_25_" x1="256.8335" x2="297.8496" y1="135.208" y2="135.208"><stop offset="0" style="stop-color:#345070"/><stop offset="0.2885" style="stop-color:#5379B4"/><stop offset="0.5321" style="stop-color:#6F9DCE"/><stop offset="0.6836" style="stop-color:#5685BE"/><stop offset="0.8793" style="stop-color:#405C99"/><stop offset="1" style="stop-color:#343D74"/></linearGradient><path d="M276.668,142.18c-10.795,0.862-19.494-3.654-19.834-3.886v-7.875       c0.066,0.045,8.77,5.31,17.553,4.75c9.822-0.625,19.988-7.042,23.447-7.042l0.016,7.033       C296.08,135.965,287.25,141.335,276.668,142.18z" fill="url(#SVGID_25_)"/></g><g><linearGradient gradientUnits="userSpaceOnUse" id="SVGID_26_" x1="389.834" x2="431.166" y1="281.1689" y2="281.1689"><stop offset="0" style="stop-color:#FCC002"/><stop offset="0.4729" style="stop-color:#FDE804"/><stop offset="0.8865" style="stop-color:#FAC908"/><stop offset="1" style="stop-color:#BF8B02"/></linearGradient><rect fill="url(#SVGID_26_)" height="397" width="41.332" x="389.834" y="82.669"/><linearGradient gradientUnits="userSpaceOnUse" id="SVGID_27_" x1="392.334" x2="427" y1="57.707" y2="57.707"><stop offset="0" style="stop-color:#FCC002"/><stop offset="0.4729" style="stop-color:#FDE804"/><stop offset="0.5875" style="stop-color:#FAC800"/><stop offset="1" style="stop-color:#BF8B02"/></linearGradient><path d="M404.844,33.774c0,0,2.174-1.407,5.215-1.359c2.629,0.041,5.213,1.401,5.213,1.401L427,83       h-34.666L404.844,33.774z" fill="url(#SVGID_27_)"/><linearGradient gradientUnits="userSpaceOnUse" id="SVGID_28_" x1="389.834" x2="431.166" y1="281.1689" y2="281.1689"><stop offset="0" style="stop-color:#D1A10D"/><stop offset="0.2885" style="stop-color:#E0CA29"/><stop offset="0.5321" style="stop-color:#FCF769"/><stop offset="0.6836" style="stop-color:#DBCF21"/><stop offset="0.8793" style="stop-color:#CBBA23"/><stop offset="1" style="stop-color:#A68912"/></linearGradient><path d="M431.166,467.669h-41.332v-372c0,0,16.031-1,21.375-1c4.988,0,19.957,1,19.957,1V467.669z" fill="url(#SVGID_28_)"/><linearGradient gradientUnits="userSpaceOnUse" id="SVGID_29_" x1="389.834" x2="430.834" y1="135.1646" y2="135.1646"><stop offset="0" style="stop-color:#171705"/><stop offset="0.1445" style="stop-color:#252918"/><stop offset="0.4746" style="stop-color:#515E44"/><stop offset="0.8428" style="stop-color:#333F26"/><stop offset="0.9949" style="stop-color:#1F1108"/></linearGradient><path d="M430.834,152.669c0,0-8.035-1.349-20.5-1.375c-12.789-0.026-20.5,1.375-20.5,1.375v-33.125       c0,0,11.715-1.757,19.832-1.875c9.293-0.135,21.168,1.375,21.168,1.375V152.669z" fill="url(#SVGID_29_)"/><linearGradient gradientUnits="userSpaceOnUse" id="SVGID_30_" x1="389.834" x2="430.8477" y1="135.208" y2="135.208"><stop offset="0" style="stop-color:#D1A10D"/><stop offset="0.2885" style="stop-color:#E0CA29"/><stop offset="0.5321" style="stop-color:#FCF769"/><stop offset="0.6836" style="stop-color:#DBCF21"/><stop offset="0.8793" style="stop-color:#CBBA23"/><stop offset="1" style="stop-color:#A68912"/></linearGradient><path d="M409.666,142.18c-10.795,0.862-19.492-3.654-19.832-3.886v-7.875       c0.066,0.045,8.768,5.31,17.553,4.75c9.822-0.625,19.988-7.042,23.447-7.042l0.014,7.033       C429.08,135.965,420.25,141.335,409.666,142.18z" fill="url(#SVGID_30_)"/></g><g><linearGradient gradientUnits="userSpaceOnUse" id="SVGID_31_" x1="346" x2="387" y1="281.5" y2="281.5"><stop offset="0" style="stop-color:#F74206"/><stop offset="0.4729" style="stop-color:#F96918"/><stop offset="0.5875" style="stop-color:#F74505"/><stop offset="1" style="stop-color:#EC3107"/></linearGradient><rect fill="url(#SVGID_31_)" height="397" width="41" x="346" y="83"/><linearGradient gradientUnits="userSpaceOnUse" id="SVGID_32_" x1="348.334" x2="383" y1="57.707" y2="57.707"><stop offset="0" style="stop-color:#F74206"/><stop offset="0.4729" style="stop-color:#F96918"/><stop offset="0.5875" style="stop-color:#F74505"/><stop offset="1" style="stop-color:#B51024"/></linearGradient><path d="M360.846,33.774c0,0,2.172-1.407,5.213-1.359c2.629,0.041,5.213,1.401,5.213,1.401L383,83       h-34.666L360.846,33.774z" fill="url(#SVGID_32_)"/><linearGradient gradientUnits="userSpaceOnUse" id="SVGID_33_" x1="345.834" x2="387.168" y1="281.1689" y2="281.1689"><stop offset="0" style="stop-color:#E95315"/><stop offset="0.2885" style="stop-color:#F16822"/><stop offset="0.5321" style="stop-color:#FE994E"/><stop offset="0.6836" style="stop-color:#F97F30"/><stop offset="0.8793" style="stop-color:#EC5C0F"/><stop offset="1" style="stop-color:#C9410B"/></linearGradient><path d="M387.168,467.669h-41.334v-372c0,0,16.031-1,21.375-1c4.99,0,19.959,1,19.959,1V467.669z" fill="url(#SVGID_33_)"/><linearGradient gradientUnits="userSpaceOnUse" id="SVGID_34_" x1="345.834" x2="386.834" y1="135.1646" y2="135.1646"><stop offset="0" style="stop-color:#171705"/><stop offset="0.1445" style="stop-color:#252918"/><stop offset="0.4746" style="stop-color:#515E44"/><stop offset="0.8428" style="stop-color:#333F26"/><stop offset="0.9949" style="stop-color:#1F1108"/></linearGradient><path d="M386.834,152.669c0,0-8.035-1.349-20.5-1.375c-12.789-0.026-20.5,1.375-20.5,1.375v-33.125       c0,0,11.717-1.757,19.834-1.875c9.291-0.135,21.166,1.375,21.166,1.375V152.669z" fill="url(#SVGID_34_)"/><linearGradient gradientUnits="userSpaceOnUse" id="SVGID_35_" x1="345.834" x2="386.8496" y1="135.208" y2="135.208"><stop offset="0" style="stop-color:#E95315"/><stop offset="0.2885" style="stop-color:#F16822"/><stop offset="0.5321" style="stop-color:#FE994E"/><stop offset="0.6836" style="stop-color:#F97F30"/><stop offset="0.8793" style="stop-color:#EC5C0F"/><stop offset="1" style="stop-color:#C9410B"/></linearGradient><path d="M365.668,142.18c-10.795,0.862-19.494-3.654-19.834-3.886v-7.875       c0.066,0.045,8.77,5.31,17.553,4.75c9.822-0.625,19.988-7.042,23.447-7.042l0.016,7.033       C385.08,135.965,376.25,141.335,365.668,142.18z" fill="url(#SVGID_35_)"/></g><g><linearGradient gradientUnits="userSpaceOnUse" id="SVGID_36_" x1="302" x2="343" y1="281.5" y2="281.5"><stop offset="0" style="stop-color:#A80D24"/><stop offset="0.4729" style="stop-color:#D13535"/><stop offset="0.5875" style="stop-color:#BD0817"/><stop offset="1" style="stop-color:#9D0B20"/></linearGradient><rect fill="url(#SVGID_36_)" height="397" width="41" x="302" y="83"/><linearGradient gradientUnits="userSpaceOnUse" id="SVGID_37_" x1="304.334" x2="339" y1="57.707" y2="57.707"><stop offset="0" style="stop-color:#A80D24"/><stop offset="0.4729" style="stop-color:#D13535"/><stop offset="0.5875" style="stop-color:#BD0817"/><stop offset="1" style="stop-color:#780817"/></linearGradient><path d="M316.846,33.774c0,0,2.172-1.407,5.213-1.359c2.629,0.041,5.213,1.401,5.213,1.401L339,83       h-34.666L316.846,33.774z" fill="url(#SVGID_37_)"/><linearGradient gradientUnits="userSpaceOnUse" id="SVGID_38_" x1="301.834" x2="343.168" y1="281.1689" y2="281.1689"><stop offset="0" style="stop-color:#E9596A"/><stop offset="0.2885" style="stop-color:#E75669"/><stop offset="0.5321" style="stop-color:#F283A0"/><stop offset="0.6836" style="stop-color:#E64B60"/><stop offset="0.8793" style="stop-color:#D8313F"/><stop offset="1" style="stop-color:#E03A37"/></linearGradient><path d="M343.168,467.669h-41.334v-372c0,0,16.031-1,21.375-1c4.99,0,19.959,1,19.959,1V467.669z" fill="url(#SVGID_38_)"/><linearGradient gradientUnits="userSpaceOnUse" id="SVGID_39_" x1="301.834" x2="342.834" y1="135.1646" y2="135.1646"><stop offset="0" style="stop-color:#171705"/><stop offset="0.1445" style="stop-color:#252918"/><stop offset="0.4746" style="stop-color:#515E44"/><stop offset="0.8428" style="stop-color:#333F26"/><stop offset="0.9949" style="stop-color:#1F1108"/></linearGradient><path d="M342.834,152.669c0,0-8.035-1.349-20.5-1.375c-12.789-0.026-20.5,1.375-20.5,1.375v-33.125       c0,0,11.717-1.757,19.834-1.875c9.291-0.135,21.166,1.375,21.166,1.375V152.669z" fill="url(#SVGID_39_)"/><linearGradient gradientUnits="userSpaceOnUse" id="SVGID_40_" x1="301.834" x2="342.8496" y1="135.208" y2="135.208"><stop offset="0" style="stop-color:#E9596A"/><stop offset="0.2885" style="stop-color:#E75669"/><stop offset="0.5321" style="stop-color:#F283A0"/><stop offset="0.6836" style="stop-color:#E64B60"/><stop offset="0.8793" style="stop-color:#D8313F"/><stop offset="1" style="stop-color:#E03A37"/></linearGradient><path d="M321.668,142.18c-10.795,0.862-19.494-3.654-19.834-3.886v-7.875       c0.066,0.045,8.77,5.31,17.553,4.75c9.822-0.625,19.988-7.042,23.447-7.042l0.016,7.033       C341.08,135.965,332.25,141.335,321.668,142.18z" fill="url(#SVGID_40_)"/></g></g></g></g></svg>